<svg width="392" height="395" viewBox="0 0 392 395" fill="none" xmlns="http://www.w3.org/2000/svg">
<g clip-path="url(#clip0_339_3)">
<path fill-rule="evenodd" clip-rule="evenodd" d="M108.894 173.211H141.578C148.063 173.211 153.951 177.427 153.951 184.365C153.951 193.717 146.571 200.279 136.325 200.279H101.359L108.894 173.211ZM269.667 173.38H300.548C315.178 173.38 315.762 183.445 315.762 186.311C315.762 192.99 309.938 206.129 292.17 206.129H260.705C260.705 206.129 269.499 174.184 269.667 173.38ZM93.4342 228.372H121.695C135.534 228.372 136.312 232.172 138.219 235.414C140.112 238.657 139.243 245.466 137.933 247.826C136.286 250.797 133.485 259.94 115.794 259.94H84.4072L93.4342 228.372Z" fill="white"/>
<path fill-rule="evenodd" clip-rule="evenodd" d="M392.076 143.938V394.891H0V143.938H75.4451L33.6436 290.03H119.218C156.286 290.03 162.745 281.288 170.267 274.907C180.319 266.399 185.701 246.127 181.188 232.042C177.997 222.055 168.659 216.037 167.647 215.752C179.229 210.305 185.96 198.399 186.804 196.648C191.097 187.621 194.417 171.253 183.743 158.101C174.858 147.168 157.609 144.146 145.08 143.938H236.685L194.741 290.328H237.204L252.716 234.831H276.969C294.595 234.831 292.987 245.92 293.428 250.693L294.803 291.521L334.231 291.496C334.231 291.496 332.454 245.699 332.298 242.327C331.767 230.577 324.063 225.259 317.474 225.259C330.106 221.809 341.066 210.24 345.45 202.821C350.508 194.261 354.308 180.63 349.315 167.09C342.052 147.44 323.362 144.185 310.289 143.952H392.076V143.938Z" fill="white"/>
<path fill-rule="evenodd" clip-rule="evenodd" d="M0 95.9633H392.076V0H0V95.9633Z" fill="white"/>
</g>
<defs>
<clipPath id="clip0_339_3">
<rect width="392" height="395" fill="white"/>
</clipPath>
</defs>
</svg>
