<svg width="2600" height="270" viewBox="0 0 2600 270" fill="none" xmlns="http://www.w3.org/2000/svg">
<path fill-rule="evenodd" clip-rule="evenodd" d="M496.898 262.434H283.977L356.284 7.37603H564.1L547.264 66.5432H423.211L412.723 103.177H518.011L501.036 162.76H395.751L384.298 202.712H513.87L496.898 262.434ZM162.684 182.529C158.131 182.943 153.576 182.943 149.024 182.943H106.936L84.4425 262.295H0.681885L73.5422 7.37603H162.822H196.216C269.489 7.37603 295.154 40.8296 280.389 93.0852C265.762 144.927 227.677 178.382 162.684 182.529ZM162.684 66.5432H139.914L124.323 123.36L162.822 123.499C180.209 122.532 194.836 114.375 200.769 93.6377C207.117 69.7219 181.588 66.5432 163.65 66.5432H162.684ZM2175.98 175.754H2202.47L2201.5 83.9619L2175.83 128.891L2149.75 175.616H2175.98V175.754ZM2175.98 15.6696L2181.49 7.37603H2266.64L2285.39 262.434H2202.06V228.979H2175.98H2118.7L2099.52 262.434H2022.67H2017.7L2022.67 254.691L2175.98 15.6696ZM2598.5 81.1974C2604.85 36.6828 2582.91 0.462891 2512.39 0.462891C2448.22 0.462891 2393.85 27.5596 2378.68 82.0253C2350.8 179.209 2505.08 152.669 2494.03 191.652C2490.86 203.542 2474.86 210.453 2454.16 210.453C2445.88 210.453 2437.73 208.104 2432.22 204.094C2426.28 199.532 2423.12 193.034 2423.94 183.911H2343.77C2332.72 229.808 2365.3 269.206 2432.64 269.206C2502.72 269.206 2560.41 240.314 2576.84 181.147C2603.33 88.5253 2450.02 111.886 2461.06 73.8703C2463.4 64.7453 2472.93 59.2162 2491.69 59.2162C2499.43 59.2162 2506.86 60.5985 2511.85 63.7788C2516.94 66.9572 2520.11 72.4882 2518.74 81.1974H2598.5ZM2022.67 84.9302C2023.62 83.1322 2024.03 81.7499 2024.46 79.8151C2029.97 60.5986 2029.97 44.9777 2022.67 33.5021C2011.76 15.6698 1983.75 7.37603 1932 7.37603H1904.13H1811.67L1739.37 262.434H1822.72L1848.39 173.404H1873.63C1889.23 173.404 1898.75 175.202 1904.26 179.349C1912.95 185.707 1911.58 197.736 1905.64 217.919C1905.23 219.717 1904.69 221.099 1904.26 222.481C1898.75 242.664 1896.95 257.319 1897.36 262.434H1904.26H1982.08L1983.88 254.691C1974.23 254.691 1978.38 243.632 1988.02 210.178C2002.66 158.752 1988.02 152.391 1964.16 142.299C1994.24 134.42 2013.97 111.886 2022.67 84.9302ZM1904 117.417C1925.52 116.035 1938.77 109.121 1943.32 93.0852C1948.29 75.2528 1936.43 66.5432 1917.24 66.5432H1904H1878.33L1863.7 117.417H1896.67H1904ZM1587.72 261.879C1645.39 258.701 1688.03 237.963 1702.66 185.707C1710.38 157.783 1702.66 133.867 1677 126.954C1696.18 116.863 1718.66 97.6475 1725.99 71.5198C1740.19 20.6465 1698.52 7.37603 1641.25 7.37603H1587.72H1519.13L1446.83 262.434H1571.29C1576.82 262.434 1582.2 262.434 1587.72 261.879ZM1587.72 66.5432H1615.17C1632.97 66.5432 1648.99 66.9574 1643.61 87.1403C1639.47 101.794 1625.25 109.122 1608.41 109.122H1587.85H1574.2L1586.05 66.4047H1587.72V66.5432ZM1587.72 155.985C1613.8 155.985 1633.12 157.37 1626.64 179.349C1621.65 197.735 1606.48 202.298 1587.72 202.712H1583.58H1547.42L1560.67 155.985H1587.16H1587.72ZM1289.25 203.265C1313.94 193.589 1330.5 167.045 1339.61 133.59C1349.69 98.7532 1345.96 61.9807 1308.98 62.949C1301.65 62.949 1295.32 64.3313 1289.25 66.5432C1263.17 77.0486 1247.15 107.326 1239.84 133.453C1230.18 166.078 1228.81 206.859 1268.68 206.859C1276 206.859 1282.9 205.477 1289.25 203.265ZM1289.25 4.60966C1301.65 1.84518 1314.35 0.462891 1327.19 0.462891C1418.26 0.462891 1442.54 65.9916 1423.38 133.453C1402.8 205.476 1349.69 251.374 1289.25 265.06C1276.83 267.824 1264.12 269.206 1250.75 269.206C1171.12 269.206 1131.66 219.716 1155.95 132.485C1175.26 65.5757 1226.6 18.434 1289.25 4.60966ZM995.87 222.481C996.282 221.099 996.844 219.717 997.256 217.919C1003.2 197.736 1004.56 185.846 995.87 179.349C990.361 175.202 980.825 173.404 965.237 173.404H940.124L915.423 262.434H841.184H831.526L841.184 228.979L903.832 7.51276H995.87H1023.75C1108.88 7.51276 1130 30.4627 1116.21 79.9519C1107.51 109.26 1087.77 134.145 1055.77 142.299C1079.64 152.391 1094.27 158.752 1079.64 210.178C1069.97 243.632 1065.83 254.691 1075.91 254.691L1073.57 262.434H995.739H988.844C988.563 257.319 990.774 242.664 995.87 222.481ZM995.87 117.417C1017.4 116.035 1030.64 109.121 1035.2 93.0852C1040.16 75.2528 1028.3 66.5432 1009.12 66.5432H995.87H970.202L955.588 117.417H988.563H995.87ZM841.047 40.8292L850.705 7.37603H841.047H616.673L597.906 74.2843H672.974L619.433 262.295H702.918L756.459 74.2843H831.526L841.047 40.8292Z" fill="#008542"/>
</svg>
